<svg width="45" height="44" viewBox="0 0 45 44" fill="none" xmlns="http://www.w3.org/2000/svg">
<path d="M40.625 18.5H13.1112L25.0737 6.98498C25.7563 6.32591 26.1398 5.43203 26.1398 4.49998C26.1398 3.56792 25.7563 2.67404 25.0737 2.01498C24.3911 1.35591 23.4653 0.985657 22.5 0.985657C21.5346 0.985657 20.6088 1.35591 19.9262 2.01498L1.80124 19.515C1.47122 19.8478 1.21252 20.2403 1.03999 20.67C0.677425 21.5221 0.677425 22.4779 1.03999 23.33C1.21252 23.7596 1.47122 24.1521 1.80124 24.485L19.9262 41.985C20.2632 42.313 20.6642 42.5734 21.1059 42.7511C21.5476 42.9288 22.0215 43.0203 22.5 43.0203C22.9785 43.0203 23.4523 42.9288 23.8941 42.7511C24.3358 42.5734 24.7368 42.313 25.0737 41.985C25.4135 41.6596 25.6832 41.2725 25.8672 40.846C26.0513 40.4195 26.146 39.962 26.146 39.5C26.146 39.0379 26.0513 38.5805 25.8672 38.154C25.6832 37.7275 25.4135 37.3404 25.0737 37.015L13.1112 25.5H40.625C41.5864 25.5 42.5084 25.1312 43.1883 24.4749C43.8681 23.8185 44.25 22.9282 44.25 22C44.25 21.0717 43.8681 20.1815 43.1883 19.5251C42.5084 18.8687 41.5864 18.5 40.625 18.5Z" fill="black"/>
</svg>
