<svg width="114" height="142" viewBox="0 0 114 142" fill="none"
    xmlns="http://www.w3.org/2000/svg">
    <style>
        path {
            fill: black;
        }

        @media (prefers-color-scheme: dark) {
            path {
                fill: white;
            }
        }
    </style>
    <path d="M113.4 0.399999C112.867 5.46666 112.467 10.4 112.2 15.2C112.067 19.8667 112 23.4667 112 26C112 29.2 112.067 32.2 112.2 35C112.333 37.8 112.467 40.2667 112.6 42.4H108C107.067 33.0667 105.8 25.7333 104.2 20.4C102.6 14.9333 99.8 11 95.8 8.59999C91.8 6.19999 85.6 4.99999 77.2 4.99999H66.4V118.8C66.4 124.133 66.8667 128.133 67.8 130.8C68.8667 133.467 70.8667 135.267 73.8 136.2C76.7333 137.133 81 137.733 86.6 138V142C83.1333 141.733 78.7333 141.6 73.4 141.6C68.0667 141.467 62.6667 141.4 57.2 141.4C51.2 141.4 45.5333 141.467 40.2 141.6C35 141.6 30.8 141.733 27.6 142V138C33.2 137.733 37.4667 137.133 40.4 136.2C43.3333 135.267 45.2667 133.467 46.2 130.8C47.2667 128.133 47.8 124.133 47.8 118.8V4.99999H37C28.7333 4.99999 22.5333 6.19999 18.4 8.59999C14.4 11 11.6 14.9333 10 20.4C8.4 25.7333 7.13333 33.0667 6.2 42.4H1.6C1.86667 40.2667 2 37.8 2 35C2.13333 32.2 2.2 29.2 2.2 26C2.2 23.4667 2.06667 19.8667 1.8 15.2C1.66667 10.4 1.33333 5.46666 0.8 0.399999C6.4 0.533331 12.4667 0.666662 19 0.799994C25.6667 0.933326 32.3333 0.999991 39 0.999991C45.6667 0.999991 51.7333 0.999991 57.2 0.999991C62.6667 0.999991 68.6667 0.999991 75.2 0.999991C81.8667 0.999991 88.5333 0.933326 95.2 0.799994C101.867 0.666662 107.933 0.533331 113.4 0.399999Z"/>
</svg>
